<svg class="iconElement_3D2 ui-icon_2oI w-icon" height="100%" xmlns="http://www.w3.org/2000/svg" style="align-content: normal; align-items: normal; align-self: auto; alignment-baseline: auto; animation-delay: 0s; animation-direction: normal; animation-duration: 0s; animation-fill-mode: none; animation-iteration-count: 1; animation-name: none; animation-play-state: running; animation-timing-function: ease; appearance: none; backdrop-filter: none; backface-visibility: visible; background-attachment: scroll; background-blend-mode: normal; background-clip: border-box; background-color: rgba(0, 0, 0, 0); background-image: none; background-origin: padding-box; background-position: 0% 0%; background-repeat: repeat; background-size: auto; baseline-shift: 0px; block-size: 70px; border-block-end-color: rgb(98, 208, 223); border-block-end-style: none; border-block-end-width: 0px; border-block-start-color: rgb(98, 208, 223); border-block-start-style: none; border-block-start-width: 0px; border-bottom-color: rgb(98, 208, 223); border-bottom-left-radius: 0px; border-bottom-right-radius: 0px; border-bottom-style: none; border-bottom-width: 0px; border-collapse: separate; border-image-outset: 0; border-image-repeat: stretch; border-image-slice: 100%; border-image-source: none; border-image-width: 1; border-inline-end-color: rgb(98, 208, 223); border-inline-end-style: none; border-inline-end-width: 0px; border-inline-start-color: rgb(98, 208, 223); border-inline-start-style: none; border-inline-start-width: 0px; border-left-color: rgb(98, 208, 223); border-left-style: none; border-left-width: 0px; border-right-color: rgb(98, 208, 223); border-right-style: none; border-right-width: 0px; border-top-color: rgb(98, 208, 223); border-top-left-radius: 0px; border-top-right-radius: 0px; border-top-style: none; border-top-width: 0px; bottom: auto; box-shadow: none; box-sizing: border-box; break-after: auto; break-before: auto; break-inside: auto; buffered-rendering: auto; caption-side: top; caret-color: rgb(98, 208, 223); clear: none; clip: auto; clip-path: none; clip-rule: nonzero; color: rgb(98, 208, 223); color-interpolation: srgb; color-interpolation-filters: linearrgb; color-rendering: auto; column-count: auto; column-gap: normal; column-rule-color: rgb(98, 208, 223); column-rule-style: none; column-rule-width: 0px; column-span: none; column-width: auto; content: normal; cursor: auto; cx: 0px; cy: 0px; d: none; direction: ltr; display: inline; dominant-baseline: auto; empty-cells: show; fill: rgb(98, 208, 223); fill-opacity: 1; fill-rule: nonzero; filter: none; flex-basis: auto; flex-direction: row; flex-grow: 0; flex-shrink: 1; flex-wrap: nowrap; float: none; flood-color: rgb(0, 0, 0); flood-opacity: 1; font-family: &quot;Fira Sans&quot;, sans-serif; font-kerning: auto; font-optical-sizing: auto; font-size: 17px; font-stretch: 100%; font-style: normal; font-variant: normal; font-variant-caps: normal; font-variant-east-asian: normal; font-variant-ligatures: normal; font-variant-numeric: normal; font-weight: 400; grid-auto-columns: auto; grid-auto-flow: row; grid-auto-rows: auto; grid-column-end: auto; grid-column-start: auto; grid-row-end: auto; grid-row-start: auto; grid-template-areas: none; grid-template-columns: none; grid-template-rows: none; height: 70px; hyphens: manual; image-orientation: from-image; image-rendering: auto; inline-size: 70px; inset-block-end: auto; inset-block-start: auto; inset-inline-end: auto; inset-inline-start: auto; isolation: auto; justify-content: normal; justify-items: normal; justify-self: auto; left: auto; letter-spacing: normal; lighting-color: rgb(255, 255, 255); line-break: auto; line-height: 28.9px; list-style-image: none; list-style-position: outside; list-style-type: disc; margin-block-end: 0px; margin-block-start: 0px; margin-bottom: 0px; margin-inline-end: 0px; margin-inline-start: 0px; margin-left: 0px; margin-right: 0px; margin-top: 0px; marker-end: none; marker-mid: none; marker-start: none; mask-type: luminance; max-block-size: 100%; max-height: 100%; max-inline-size: 100%; max-width: 100%; min-block-size: 0px; min-height: 0px; min-inline-size: 0px; min-width: 0px; mix-blend-mode: normal; object-fit: fill; object-position: 50% 50%; offset-distance: 0px; offset-path: none; offset-rotate: auto 0deg; opacity: 1; order: 0; orphans: 2; outline-color: rgb(98, 208, 223); outline-offset: 0px; outline-style: none; outline-width: 0px; overflow-anchor: auto; overflow-wrap: break-word; overflow-x: hidden; overflow-y: hidden; overscroll-behavior-block: auto; overscroll-behavior-inline: auto; padding-block-end: 0px; padding-block-start: 0px; padding-bottom: 0px; padding-inline-end: 0px; padding-inline-start: 0px; padding-left: 0px; padding-right: 0px; padding-top: 0px; paint-order: normal; perspective: none; perspective-origin: 35px 35px; pointer-events: auto; position: static; r: 0px; resize: none; right: auto; row-gap: normal; ruby-position: over; rx: auto; ry: auto; scroll-behavior: auto; scroll-margin-block-end: 0px; scroll-margin-block-start: 0px; scroll-margin-inline-end: 0px; scroll-margin-inline-start: 0px; scroll-padding-block-end: auto; scroll-padding-block-start: auto; scroll-padding-inline-end: auto; scroll-padding-inline-start: auto; shape-image-threshold: 0; shape-margin: 0px; shape-outside: none; shape-rendering: auto; speak: normal; stop-color: rgb(0, 0, 0); stop-opacity: 1; stroke: none; stroke-dasharray: none; stroke-dashoffset: 0px; stroke-linecap: butt; stroke-linejoin: miter; stroke-miterlimit: 4; stroke-opacity: 1; stroke-width: 1px; tab-size: 8; table-layout: auto; text-align: center; text-align-last: auto; text-anchor: start; text-decoration: none solid rgb(98, 208, 223); text-decoration-color: rgb(98, 208, 223); text-decoration-line: none; text-decoration-skip-ink: auto; text-decoration-style: solid; text-indent: 0px; text-overflow: clip; text-rendering: auto; text-shadow: none; text-size-adjust: auto; text-transform: none; text-underline-position: auto; top: auto; touch-action: auto; transform: none; transform-origin: 35px 35px; transform-style: flat; transition-delay: 0s; transition-duration: 0s; transition-property: all; transition-timing-function: ease; unicode-bidi: normal; user-select: auto; vector-effect: none; vertical-align: baseline; visibility: visible; white-space: normal; widows: 2; width: 70px; will-change: auto; word-break: normal; word-spacing: 0px; writing-mode: horizontal-tb; x: 0px; y: 0px; z-index: auto; zoom: 1; -webkit-app-region: none; -webkit-border-horizontal-spacing: 0px; -webkit-border-image: none; -webkit-border-vertical-spacing: 0px; -webkit-box-align: stretch; -webkit-box-decoration-break: slice; -webkit-box-direction: normal; -webkit-box-flex: 0; -webkit-box-ordinal-group: 1; -webkit-box-orient: horizontal; -webkit-box-pack: start; -webkit-box-reflect: none; -webkit-font-smoothing: antialiased; -webkit-highlight: none; -webkit-hyphenate-character: auto; -webkit-line-break: auto; -webkit-line-clamp: none; -webkit-locale: auto; -webkit-mask-box-image: none; -webkit-mask-box-image-outset: 0; -webkit-mask-box-image-repeat: stretch; -webkit-mask-box-image-slice: 0 fill; -webkit-mask-box-image-source: none; -webkit-mask-box-image-width: auto; -webkit-mask-clip: border-box; -webkit-mask-composite: source-over; -webkit-mask-image: none; -webkit-mask-origin: border-box; -webkit-mask-position: 0% 0%; -webkit-mask-repeat: repeat; -webkit-mask-size: auto; -webkit-print-color-adjust: economy; -webkit-rtl-ordering: logical; -webkit-tap-highlight-color: rgba(0, 0, 0, 0.18); -webkit-text-combine: none; -webkit-text-decorations-in-effect: none; -webkit-text-emphasis-color: rgb(98, 208, 223); -webkit-text-emphasis-position: over right; -webkit-text-emphasis-style: none; -webkit-text-fill-color: rgb(98, 208, 223); -webkit-text-orientation: vertical-right; -webkit-text-security: none; -webkit-text-stroke-color: rgb(98, 208, 223); -webkit-text-stroke-width: 0px; -webkit-user-drag: auto; -webkit-user-modify: read-only; -webkit-writing-mode: horizontal-tb;" version="1.1" xmlns:xlink="http://www.w3.org/1999/xlink"><style  type="text/css">*, ::after, ::before, html { box-sizing: border-box; }
*, ::after, ::before { box-sizing: border-box; }
.iconElement_3D2 svg { max-width: 100%; max-height: 100%; fill: currentcolor; }</style><svg data-name="Layer 1" viewBox="0 0 128 128" x="0px" y="0px" style="max-width:100%"><title style="" fill="currentColor">miscellaneous101 expandline</title><path d="M127.32813,95.16174c-.60937-.54218-15.02979-13.17108-33.05225-13.17108-.13525,0-.27148.001-.40674.002a44.40586,44.40586,0,0,0-19.29065,4.93C78.84772,79.62238,83,69.67511,83,58.54883,83,36.17468,66.1958,17.413,65.48047,16.62567a2.06438,2.06438,0,0,0-2.96094,0C61.8042,17.413,45,36.17468,45,58.54883c0,11.12573,4.15186,21.07245,8.42084,28.37262a44.40953,44.40953,0,0,0-19.29-4.92883c-.13672-.001-.27-.002-.40674-.002-18.021,0-32.44287,12.62988-33.05225,13.17108a2.00012,2.00012,0,0,0-.0332,2.96088c.60107.55878,14.93018,13.683,33.14355,13.87543.13574.001.271.002.40625.002,13.87744,0,25.10376-7.4967,29.81189-11.20831C68.7005,104.49915,79.923,112,93.81152,112c.13428,0,.27148-.001.40625-.002,18.21338-.19244,32.54248-13.31665,33.14355-13.87543a2.00012,2.00012,0,0,0-.0332-2.96088Zm-93.50391,12.835c-13.126-.13867-24.418-7.95068-28.6665-11.30426C9.44434,93.45911,20.752,85.99194,33.73242,85.99194c.11816,0,.2373.001.35645.002,13.145.13867,23.89746,7.979,27.86328,11.29547C57.91016,100.52081,46.99316,108.09839,33.82422,107.99677ZM64,94.97614c-4.00781-4.75732-15-19.3634-15-36.42731C49,41.50348,59.95313,26.1745,64.00146,21.09192,68.05176,26.16864,79,41.47418,79,58.54883,79,75.61273,68.00781,90.21881,64,94.97614Zm30.17578,13.02063c-13.14307.11237-24.08594-7.476-28.12793-10.7074,3.96582-3.31647,14.71826-11.1568,27.86328-11.29547.12012-.001.2373-.002.35645-.002,12.98193,0,24.29346,7.47107,28.57715,10.70251C118.606,100.048,107.33643,107.85809,94.17578,107.99677Z" style="" fill="currentColor"/><path d="M20.98273,79.76245c1.435-.41022,2.918-.76447,4.44678-1.04529A56.29666,56.29666,0,0,1,14.63379,60.612c4.7359-.72522,16.38934-1.74591,26.66852,3.281q-.24124-2.22968-.28357-4.53125C27.08917,53.5271,12.23279,56.948,11.53564,57.11481a2.00068,2.00068,0,0,0-1.45947,2.49194A60.04509,60.04509,0,0,0,20.98273,79.76245Z" style="" fill="currentColor"/><path d="M113.36621,60.612a56.22133,56.22133,0,0,1-10.86072,18.17767c1.52448.287,3.00665.64429,4.44568,1.05206a60.00974,60.00974,0,0,0,10.97266-20.235,2.00068,2.00068,0,0,0-1.45947-2.49194c-.69757-.16681-15.55414-3.5885-29.48309,2.24683q-.03873,2.3009-.28357,4.53162C96.977,58.866,108.63068,59.88672,113.36621,60.612Z" style="" fill="currentColor"/><path d="M64,52a8,8,0,1,0,8,8A8.00917,8.00917,0,0,0,64,52Zm0,12a4,4,0,1,1,4-4A4.00427,4.00427,0,0,1,64,64Z" style="" fill="currentColor"/></svg></svg>