<?xml version="1.0" encoding="UTF-8"?>
<svg xmlns="http://www.w3.org/2000/svg" version="1.1"   x="0" y="0" viewBox="0 0 512 512" xml:space="preserve">
  <style>.st0{fill:#29abe2}</style>
  <switch>
    <g>
      <path class="st0" d="M352 59.2L242.9 238.8c-2.5 4.1-2.5 9.3 0 13.4L352 431.7c2.3 3.9 6.5 6.2 11.1 6.2h39.3c10.1 0 16.3-11 11.1-19.6L312.6 252.2c-2.5-4.1-2.5-9.3 0-13.4L413.5 72.6c5.2-8.6-1-19.6-11.1-19.6h-39.3c-4.5 0-8.7 2.4-11.1 6.2z"></path>
      <path class="st0" d="M236.4 59.2L127.3 238.8c-2.5 4.1-2.5 9.3 0 13.4l109.1 179.5c2.3 3.9 6.5 6.2 11.1 6.2h39.3c10.1 0 16.3-11 11.1-19.6L197 252.2c-2.5-4.1-2.5-9.3 0-13.4L297.9 72.6c5.2-8.6-1-19.6-11.1-19.6h-39.3c-4.6 0-8.7 2.4-11.1 6.2z"></path>
    </g>
  </switch>
</svg>
