<?xml version="1.0" encoding="UTF-8"?>
<svg xmlns="http://www.w3.org/2000/svg" version="1.1"   x="0" y="0" viewBox="0 0 512 512" xml:space="preserve">
  <style>.st0{fill:#29abe2}</style>
  <switch>
    <g>
      <path class="st0" d="M188.8 59.2l109.1 179.5c2.5 4.1 2.5 9.3 0 13.4L188.8 431.7c-2.3 3.9-6.5 6.2-11.1 6.2h-39.3c-10.1 0-16.3-11-11.1-19.6l100.9-166.1c2.5-4.1 2.5-9.3 0-13.4L127.4 72.6c-5.2-8.6 1-19.6 11.1-19.6h39.3c4.5 0 8.7 2.4 11 6.2z"></path>
      <path class="st0" d="M304.4 59.2l109.1 179.5c2.5 4.1 2.5 9.3 0 13.4L304.4 431.7c-2.3 3.9-6.5 6.2-11.1 6.2H254c-10.1 0-16.3-11-11.1-19.6l100.9-166.1c2.5-4.1 2.5-9.3 0-13.4L243 72.6c-5.3-8.6.9-19.6 11-19.6h39.3c4.6 0 8.8 2.4 11.1 6.2z"></path>
    </g>
  </switch>
</svg>
